# Blender 3.3.1
# www.blender.org
mtllib ArrowBlue.mtl
o Plane
v -1.000000 0.000000 1.000000
v 1.000000 0.000000 1.000000
v 0.092553 0.000000 0.439079
v -0.092553 0.000000 0.439079
v -0.092553 0.000000 -0.814893
v 0.092553 0.000000 -0.814893
v -0.092553 0.419303 0.439079
v 0.092553 0.419303 0.439079
v 0.092553 0.419303 -0.814893
v -0.092553 0.419303 -0.814893
v 1.000000 0.419303 1.000000
v -1.000000 0.419303 1.000000
vn -0.0000 -1.0000 -0.0000
vn -0.0000 1.0000 -0.0000
vn 0.8944 -0.0000 -0.4472
vn -0.8944 -0.0000 -0.4472
vn -0.5258 -0.0000 0.8506
vn -0.0000 -0.0000 -1.0000
vn -0.0000 -0.0000 1.0000
vn 0.5258 -0.0000 0.8506
vt 0.000000 0.000000
vt 1.000000 0.000000
vt 0.546277 0.000000
vt 0.453723 0.000000
vt 0.453723 0.907447
vt 0.546277 0.907447
vt 0.453723 0.000000
vt 0.546277 0.000000
vt 0.546277 0.907447
vt 0.453723 0.907447
vt 1.000000 0.000000
vt 0.000000 0.000000
s 0
usemtl Material.001
f 1/1/1 5/5/1 4/4/1
f 3/3/1 4/4/1 5/5/1 6/6/1
f 3/3/1 6/6/1 2/2/1
f 12/12/2 7/7/2 10/10/2
f 8/8/2 9/9/2 10/10/2 7/7/2
f 8/8/2 11/11/2 9/9/2
f 2/2/3 6/6/3 9/9/3 11/11/3
f 5/5/4 1/1/4 12/12/4 10/10/4
f 3/3/5 2/2/5 11/11/5 8/8/5
f 6/6/6 5/5/6 10/10/6 9/9/6
f 4/4/7 3/3/7 8/8/7 7/7/7
f 1/1/8 4/4/8 7/7/8 12/12/8
