# Blender 3.3.1
# www.blender.org
mtllib North.mtl
o N
v -0.173421 -0.000000 0.150600
v -0.124890 -0.000000 0.150233
v -0.161211 -0.000000 0.120073
v -0.125083 -0.000000 0.119358
v -0.095636 -0.000000 0.150011
v -0.066382 -0.000000 0.149789
v -0.037128 -0.000000 0.149568
v -0.007874 -0.000000 0.149346
v -0.083373 -0.000000 0.118533
v -0.081873 -0.000000 0.096688
v -0.066450 -0.000000 0.117147
v -0.081174 -0.000000 0.086514
v -0.079195 -0.000000 0.057700
v -0.077191 -0.000000 0.028514
v -0.046736 -0.000000 0.120071
v -0.046736 -0.000000 0.087893
v -0.008067 -0.000000 0.119283
v -0.046735 -0.000000 0.058638
v -0.046735 -0.000000 0.029383
v -0.005071 -0.000000 0.026885
v -0.173421 0.042371 0.150600
v -0.124890 0.042371 0.150233
v -0.161211 0.042371 0.120073
v -0.125083 0.042371 0.119358
v -0.095636 0.042371 0.150011
v -0.066382 0.042371 0.149789
v -0.037128 0.042371 0.149568
v -0.007874 0.042371 0.149346
v -0.083373 0.042371 0.118533
v -0.081873 0.042371 0.096688
v -0.066450 0.042371 0.117147
v -0.081174 0.042371 0.086514
v -0.079195 0.042371 0.057700
v -0.077191 0.042371 0.028514
v -0.046736 0.042371 0.120071
v -0.046736 0.042371 0.087893
v -0.008067 0.042371 0.119283
v -0.046735 0.042371 0.058638
v -0.046735 0.042371 0.029383
v -0.005071 0.042371 0.026885
v -0.203948 -0.000000 -0.096667
v -0.183469 -0.000000 -0.096667
v -0.154215 -0.000000 -0.096668
v -0.123052 -0.000000 -0.096668
v -0.203948 -0.000000 -0.116509
v -0.183538 -0.000000 -0.116702
v -0.154284 -0.000000 -0.116978
v -0.125030 -0.000000 -0.117254
v -0.075187 -0.000000 -0.000672
v -0.072683 -0.000000 -0.037140
v -0.092661 -0.000000 -0.060751
v -0.107208 -0.000000 -0.077943
v -0.080428 -0.000000 -0.046292
v -0.066450 -0.000000 -0.087637
v -0.046735 -0.000000 -0.018824
v -0.046735 -0.000000 -0.026201
v -0.019685 -0.000000 0.010853
v -0.007940 -0.000000 -0.029127
v -0.037195 -0.000000 -0.058382
v -0.025061 -0.000000 -0.098062
v 0.001890 -0.000000 -0.066572
v -0.012606 -0.000000 -0.083509
v -0.095777 -0.000000 -0.117530
v -0.066523 -0.000000 -0.117807
v -0.042156 -0.000000 -0.118037
v -0.203948 0.042371 -0.096667
v -0.183469 0.042371 -0.096667
v -0.154215 0.042371 -0.096668
v -0.123052 0.042371 -0.096668
v -0.203948 0.042371 -0.116509
v -0.183538 0.042371 -0.116702
v -0.154284 0.042371 -0.116978
v -0.125030 0.042371 -0.117254
v -0.075187 0.042371 -0.000672
v -0.072683 0.042371 -0.037140
v -0.092661 0.042371 -0.060751
v -0.107208 0.042371 -0.077943
v -0.080428 0.042371 -0.046292
v -0.066450 0.042371 -0.087637
v -0.046735 0.042371 -0.018824
v -0.046735 0.042371 -0.026201
v -0.019685 0.042371 0.010853
v -0.007940 0.042371 -0.029127
v -0.037195 0.042371 -0.058382
v -0.025061 0.042371 -0.098062
v 0.001890 0.042371 -0.066572
v -0.012606 0.042371 -0.083509
v -0.095777 0.042371 -0.117530
v -0.066523 0.042371 -0.117807
v -0.042156 0.042371 -0.118037
v 0.028055 -0.000000 0.149074
v 0.092434 -0.000000 0.133857
v 0.110478 -0.000000 0.153653
v 0.028056 -0.000000 0.118547
v 0.064513 -0.000000 0.103225
v 0.053864 -0.000000 0.091542
v 0.022849 -0.000000 0.057516
v 0.008204 -0.000000 0.041449
v 0.036093 -0.000000 0.072045
v 0.050570 -0.000000 0.029383
v 0.078053 -0.000000 0.118080
v 0.079824 -0.000000 0.087893
v 0.109079 -0.000000 0.117147
v 0.109079 -0.000000 0.087893
v 0.079824 -0.000000 0.058638
v 0.082743 -0.000000 0.027899
v 0.102892 -0.000000 0.055765
v 0.102846 -0.000000 0.051388
v 0.131988 -0.000000 0.138987
v 0.144057 -0.000000 0.130758
v 0.144343 -0.000000 0.087961
v 0.144538 -0.000000 0.058707
v 0.144733 -0.000000 0.029453
v 0.028055 0.042371 0.149074
v 0.092434 0.042371 0.133857
v 0.110478 0.042371 0.153653
v 0.028056 0.042371 0.118547
v 0.064513 0.042371 0.103225
v 0.053864 0.042371 0.091542
v 0.022849 0.042371 0.057516
v 0.008204 0.042371 0.041449
v 0.036093 0.042371 0.072045
v 0.050570 0.042371 0.029383
v 0.078053 0.042371 0.118080
v 0.079824 0.042371 0.087893
v 0.109079 0.042371 0.117147
v 0.109079 0.042371 0.087893
v 0.079824 0.042371 0.058638
v 0.082743 0.042371 0.027899
v 0.102892 0.042371 0.055765
v 0.102846 0.042371 0.051388
v 0.131988 0.042371 0.138987
v 0.144057 0.042371 0.130758
v 0.144343 0.042371 0.087961
v 0.144538 0.042371 0.058707
v 0.144733 0.042371 0.029453
v 0.021315 -0.000000 0.000128
v 0.028841 -0.000000 -0.035082
v 0.055792 -0.000000 -0.003592
v 0.041470 -0.000000 -0.020326
v 0.014432 -0.000000 -0.051917
v 0.031108 -0.000000 -0.092089
v 0.050570 -0.000000 -0.092089
v 0.068508 -0.000000 0.011266
v 0.102302 -0.000000 0.000242
v 0.101991 -0.000000 -0.029011
v 0.079824 -0.000000 -0.092089
v 0.101679 -0.000000 -0.058265
v 0.101320 -0.000000 -0.092089
v 0.031108 -0.000000 -0.124141
v 0.050570 -0.000000 -0.124141
v 0.079824 -0.000000 -0.124141
v 0.109079 -0.000000 -0.124141
v 0.144928 -0.000000 0.000199
v 0.145123 -0.000000 -0.029056
v 0.145318 -0.000000 -0.058310
v 0.145584 -0.000000 -0.098193
v 0.167589 -0.000000 -0.098193
v 0.196844 -0.000000 -0.098193
v 0.217322 -0.000000 -0.098193
v 0.138334 -0.000000 -0.124141
v 0.167589 -0.000000 -0.124141
v 0.196844 -0.000000 -0.124141
v 0.217322 -0.000000 -0.124141
v 0.021315 0.042371 0.000128
v 0.028841 0.042371 -0.035082
v 0.055792 0.042371 -0.003592
v 0.041470 0.042371 -0.020326
v 0.014432 0.042371 -0.051917
v 0.031108 0.042371 -0.092089
v 0.050570 0.042371 -0.092089
v 0.068508 0.042371 0.011266
v 0.102302 0.042371 0.000242
v 0.101991 0.042371 -0.029011
v 0.079824 0.042371 -0.092089
v 0.101679 0.042371 -0.058265
v 0.101320 0.042371 -0.092089
v 0.031108 0.042371 -0.124141
v 0.050570 0.042371 -0.124141
v 0.079824 0.042371 -0.124141
v 0.109079 0.042371 -0.124141
v 0.144928 0.042371 0.000199
v 0.145123 0.042371 -0.029056
v 0.145318 0.042371 -0.058310
v 0.145584 0.042371 -0.098193
v 0.167589 0.042371 -0.098193
v 0.196844 0.042371 -0.098193
v 0.217322 0.042371 -0.098193
v 0.138334 0.042371 -0.124141
v 0.167589 0.042371 -0.124141
v 0.196844 0.042371 -0.124141
v 0.217322 0.042371 -0.124141
vn -0.0000 -1.0000 -0.0000
vn -0.0000 1.0000 -0.0000
vn 0.0076 -0.0000 1.0000
vn -0.0198 -0.0000 -0.9998
vn -0.9977 -0.0000 -0.0685
vn 1.0000 -0.0000 -0.0000
vn -0.0204 -0.0000 -0.9998
vn -0.9285 -0.0000 -0.3714
vn -0.0000 -0.0000 1.0000
vn -0.0094 -0.0000 -1.0000
vn -0.7634 -0.0000 0.6459
vn -0.7391 -0.0000 0.6736
vn 0.7597 -0.0000 -0.6502
vn -1.0000 -0.0000 -0.0000
vn 1.0000 -0.0000 0.0067
vn 0.5633 -0.0000 0.8262
vn -0.9999 -0.0000 0.0106
vn -0.0000 -0.0000 -1.0000
s 0
usemtl Material.001
f 9//1 10//1 12//1 11//1
f 11//1 12//1 16//1 15//1
f 13//1 14//1 19//1 18//1
f 12//1 13//1 18//1 16//1
f 1//1 3//1 4//1 2//1
f 5//1 9//1 11//1 6//1
f 7//1 15//1 17//1 8//1
f 6//1 11//1 15//1 7//1
f 2//1 4//1 9//1 5//1
f 31//2 32//2 30//2 29//2
f 35//2 36//2 32//2 31//2
f 38//2 39//2 34//2 33//2
f 36//2 38//2 33//2 32//2
f 22//2 24//2 23//2 21//2
f 26//2 31//2 29//2 25//2
f 28//2 37//2 35//2 27//2
f 27//2 35//2 31//2 26//2
f 25//2 29//2 24//2 22//2
f 51//1 52//1 54//1 53//1
f 55//1 56//1 58//1 57//1
f 59//1 60//1 62//1 61//1
f 49//1 50//1 56//1 55//1
f 53//1 54//1 60//1 59//1
f 56//1 59//1 61//1 58//1
f 50//1 53//1 59//1 56//1
f 41//1 45//1 46//1 42//1
f 43//1 47//1 48//1 44//1
f 42//1 46//1 47//1 43//1
f 52//1 63//1 64//1 54//1
f 54//1 64//1 65//1 60//1
f 44//1 48//1 63//1 52//1
f 78//2 79//2 77//2 76//2
f 82//2 83//2 81//2 80//2
f 86//2 87//2 85//2 84//2
f 80//2 81//2 75//2 74//2
f 84//2 85//2 79//2 78//2
f 83//2 86//2 84//2 81//2
f 81//2 84//2 78//2 75//2
f 67//2 71//2 70//2 66//2
f 69//2 73//2 72//2 68//2
f 68//2 72//2 71//2 67//2
f 79//2 89//2 88//2 77//2
f 85//2 90//2 89//2 79//2
f 77//2 88//2 73//2 69//2
f 97//1 98//1 100//1 99//1
f 101//1 102//1 104//1 103//1
f 105//1 106//1 108//1 107//1
f 95//1 96//1 102//1 101//1
f 99//1 100//1 106//1 105//1
f 102//1 105//1 107//1 104//1
f 96//1 99//1 105//1 102//1
f 103//1 104//1 111//1 110//1
f 107//1 108//1 113//1 112//1
f 104//1 107//1 112//1 111//1
f 92//1 101//1 103//1 93//1
f 93//1 103//1 110//1 109//1
f 122//2 123//2 121//2 120//2
f 126//2 127//2 125//2 124//2
f 130//2 131//2 129//2 128//2
f 124//2 125//2 119//2 118//2
f 128//2 129//2 123//2 122//2
f 127//2 130//2 128//2 125//2
f 125//2 128//2 122//2 119//2
f 133//2 134//2 127//2 126//2
f 135//2 136//2 131//2 130//2
f 134//2 135//2 130//2 127//2
f 116//2 126//2 124//2 115//2
f 132//2 133//2 126//2 116//2
f 137//1 138//1 140//1 139//1
f 145//1 146//1 155//1 154//1
f 148//1 149//1 157//1 156//1
f 146//1 148//1 156//1 155//1
f 142//1 150//1 151//1 143//1
f 147//1 152//1 153//1 149//1
f 143//1 151//1 152//1 147//1
f 157//1 161//1 162//1 158//1
f 159//1 163//1 164//1 160//1
f 158//1 162//1 163//1 159//1
f 149//1 153//1 161//1 157//1
f 167//2 168//2 166//2 165//2
f 182//2 183//2 174//2 173//2
f 184//2 185//2 177//2 176//2
f 183//2 184//2 176//2 174//2
f 171//2 179//2 178//2 170//2
f 177//2 181//2 180//2 175//2
f 175//2 180//2 179//2 171//2
f 186//2 190//2 189//2 185//2
f 188//2 192//2 191//2 187//2
f 187//2 191//2 190//2 186//2
f 185//2 189//2 181//2 177//2
f 8//1 17//1 94//1 91//1
f 114//2 117//2 37//2 28//2
f 57//1 58//1 138//1 137//1
f 58//1 61//1 141//1 138//1
f 165//2 166//2 83//2 82//2
f 166//2 169//2 86//2 83//2
f 14//1 49//1 55//1 19//1
f 98//1 137//1 139//1 100//1
f 100//1 139//1 144//1 106//1
f 108//1 145//1 154//1 113//1
f 39//2 80//2 74//2 34//2
f 123//2 167//2 165//2 121//2
f 129//2 172//2 167//2 123//2
f 136//2 182//2 173//2 131//2
f 1//3 2//3 22//3 21//3
f 23//4 24//4 4//4 3//4
f 5//3 6//3 26//3 25//3
f 7//3 8//3 28//3 27//3
f 6//3 7//3 27//3 26//3
f 9//5 29//5 30//5 10//5
f 30//5 32//5 12//5 10//5
f 13//5 33//5 34//5 14//5
f 16//6 36//6 35//6 15//6
f 35//7 37//7 17//7 15//7
f 19//6 39//6 38//6 18//6
f 12//5 32//5 33//5 13//5
f 18//6 38//6 36//6 16//6
f 1//8 21//8 23//8 3//8
f 2//3 5//3 25//3 22//3
f 24//4 29//4 9//4 4//4
f 41//9 42//9 67//9 66//9
f 43//9 44//9 69//9 68//9
f 42//9 43//9 68//9 67//9
f 70//10 71//10 46//10 45//10
f 72//10 73//10 48//10 47//10
f 71//10 72//10 47//10 46//10
f 49//5 74//5 75//5 50//5
f 51//11 76//11 77//11 52//11
f 51//11 53//11 78//11 76//11
f 55//12 57//12 82//12 80//12
f 62//13 87//13 86//13 61//13
f 85//13 87//13 62//13 60//13
f 50//11 75//11 78//11 53//11
f 88//10 89//10 64//10 63//10
f 89//10 90//10 65//10 64//10
f 41//14 66//14 70//14 45//14
f 65//13 90//13 85//13 60//13
f 44//11 52//11 77//11 69//11
f 73//10 88//10 63//10 48//10
f 92//12 93//12 116//12 115//12
f 95//12 118//12 119//12 96//12
f 97//12 120//12 121//12 98//12
f 97//12 99//12 122//12 120//12
f 129//13 131//13 108//13 106//13
f 96//12 119//12 122//12 99//12
f 95//12 101//12 124//12 118//12
f 111//15 134//15 133//15 110//15
f 113//15 136//15 135//15 112//15
f 112//15 135//15 134//15 111//15
f 94//6 117//6 114//6 91//6
f 92//12 115//12 124//12 101//12
f 110//16 133//16 132//16 109//16
f 93//16 109//16 132//16 116//16
f 140//13 168//13 167//13 139//13
f 166//13 168//13 140//13 138//13
f 142//9 143//9 171//9 170//9
f 145//17 173//17 174//17 146//17
f 148//17 176//17 177//17 149//17
f 147//9 149//9 177//9 175//9
f 141//13 169//13 166//13 138//13
f 146//17 174//17 176//17 148//17
f 167//13 172//13 144//13 139//13
f 143//9 147//9 175//9 171//9
f 178//18 179//18 151//18 150//18
f 180//18 181//18 153//18 152//18
f 179//18 180//18 152//18 151//18
f 155//15 183//15 182//15 154//15
f 157//15 185//15 184//15 156//15
f 157//9 158//9 186//9 185//9
f 159//9 160//9 188//9 187//9
f 156//15 184//15 183//15 155//15
f 158//9 159//9 187//9 186//9
f 189//18 190//18 162//18 161//18
f 191//18 192//18 164//18 163//18
f 190//18 191//18 163//18 162//18
f 142//14 170//14 178//14 150//14
f 164//6 192//6 188//6 160//6
f 181//18 189//18 161//18 153//18
f 14//5 34//5 74//5 49//5
f 55//6 80//6 39//6 19//6
f 20//12 40//12 82//12 57//12
f 144//13 172//13 129//13 106//13
f 108//17 131//17 173//17 145//17
f 154//15 182//15 136//15 113//15
f 8//3 91//3 114//3 28//3
f 37//7 117//7 94//7 17//7
f 20//12 98//12 121//12 40//12
f 86//13 169//13 141//13 61//13
f 20//1 57//1 137//1 98//1
f 121//2 165//2 82//2 40//2
